<svg width="300" height="300" viewBox="0 0 300 300" fill="none" xmlns="http://www.w3.org/2000/svg">
<path d="M117.188 42.1875C117.188 35.6978 119.112 29.3539 122.717 23.9579C126.323 18.5619 131.448 14.3562 137.443 11.8727C143.439 9.38922 150.036 8.73942 156.401 10.0055C162.766 11.2716 168.613 14.3967 173.202 18.9856C177.791 23.5745 180.916 29.4211 182.182 35.7861C183.448 42.1511 182.798 48.7486 180.315 54.7443C177.831 60.74 173.626 65.8646 168.23 69.4701C162.834 73.0756 156.49 75 150 75C141.298 75 132.952 71.543 126.798 65.3895C120.645 59.2359 117.188 50.8899 117.188 42.1875ZM252.445 164.977L199.418 104.859C196.339 101.368 192.552 98.5715 188.309 96.6561C184.066 94.7407 179.464 93.7501 174.809 93.75H125.191C120.536 93.7501 115.934 94.7407 111.691 96.6561C107.448 98.5715 103.661 101.368 100.582 104.859L47.5547 164.977C44.1114 168.5 42.193 173.236 42.2142 178.163C42.2353 183.089 44.1943 187.809 47.6677 191.302C51.1411 194.796 55.8497 196.782 60.7758 196.831C65.7018 196.881 70.4494 194.989 73.9922 191.566L104.297 167.227L81.2109 254.977C79.2024 259.486 79.053 264.605 80.7949 269.223C82.5369 273.842 86.0298 277.587 90.5158 279.646C95.0017 281.706 100.119 281.913 104.757 280.223C109.395 278.534 113.179 275.083 115.289 270.621L150 210.938L184.664 270.703C186.774 275.165 190.559 278.616 195.197 280.305C199.834 281.995 204.951 281.788 209.437 279.728C213.923 277.669 217.416 273.924 219.158 269.305C220.9 264.687 220.751 259.568 218.742 255.059L195.703 167.227L226.055 191.566C229.597 194.989 234.345 196.881 239.271 196.831C244.197 196.782 248.906 194.796 252.379 191.302C255.853 187.809 257.812 183.089 257.833 178.163C257.854 173.236 255.935 168.5 252.492 164.977H252.445Z" fill="#ACACAC"/>
</svg>
