<svg width="300" height="300" viewBox="0 0 300 300" fill="none" xmlns="http://www.w3.org/2000/svg">
<path d="M137.109 84.375H162.891V150H258.984C262.403 150 265.682 148.642 268.099 146.224C270.517 143.807 271.875 140.528 271.875 137.109V97.2657C271.875 93.8468 270.517 90.5681 268.099 88.1506C265.682 85.7331 262.403 84.375 258.984 84.375H223.934C228.68 74.5993 229.786 63.4515 227.051 52.934C224.317 42.4164 217.923 33.2184 209.016 26.992C200.109 20.7656 189.275 17.9189 178.458 18.9632C167.641 20.0074 157.551 24.8743 150 32.6895C142.436 24.9171 132.355 20.0879 121.557 19.065C110.76 18.0421 99.9514 20.8921 91.0624 27.1058C82.1734 33.3194 75.7837 42.4916 73.0355 52.9831C70.2872 63.4745 71.3594 74.6014 76.0605 84.375H41.0156C37.5968 84.375 34.318 85.7331 31.9006 88.1506C29.4831 90.5681 28.125 93.8468 28.125 97.2657V137.109C28.125 140.528 29.4831 143.807 31.9006 146.224C33.0976 147.421 34.5186 148.371 36.0826 149.019C37.6466 149.667 39.3228 150 41.0156 150H137.109V84.375ZM162.891 64.4532C162.891 60.513 164.059 56.6613 166.248 53.3852C168.437 50.109 171.548 47.5556 175.189 46.0477C178.829 44.5399 182.835 44.1454 186.699 44.9141C190.564 45.6828 194.113 47.5801 196.899 50.3663C199.686 53.1524 201.583 56.7021 202.352 60.5666C203.12 64.4311 202.726 68.4367 201.218 72.0769C199.71 75.7172 197.157 78.8286 193.88 81.0176C190.604 83.2066 186.753 84.375 182.812 84.375H162.891V64.4532ZM97.2656 64.4532C97.2656 59.1695 99.3645 54.1023 103.101 50.3663C106.837 46.6302 111.904 44.5313 117.188 44.5313C122.471 44.5313 127.538 46.6302 131.274 50.3663C135.01 54.1023 137.109 59.1695 137.109 64.4532V84.375H117.188C111.904 84.375 106.837 82.2761 103.101 78.54C99.3645 74.804 97.2656 69.7368 97.2656 64.4532ZM162.891 281.25H240.234C243.653 281.25 246.932 279.892 249.349 277.474C251.767 275.057 253.125 271.778 253.125 268.359V168.75H162.891V281.25ZM46.875 268.359C46.875 271.778 48.2331 275.057 50.6506 277.474C53.068 279.892 56.3468 281.25 59.7656 281.25H137.109V168.75H46.875V268.359Z" fill="#ACACAC"/>
</svg>
