<svg width="300" height="300" viewBox="0 0 300 300" fill="none" xmlns="http://www.w3.org/2000/svg">
<path d="M248.715 61.89C253.665 67.74 257.88 74.22 261.225 81.195C258.439 83.9855 255.131 86.1994 251.489 87.7103C247.847 89.2211 243.943 89.9992 240 90C234.64 90.0013 229.378 88.5666 224.76 85.845L248.715 61.89ZM238.11 51.27L214.155 75.24C210.76 69.5115 209.375 62.8141 210.217 56.2088C211.059 49.6036 214.081 43.4683 218.805 38.775C225.78 42.12 232.26 46.335 238.11 51.27ZM270 120C270.007 111.943 268.933 103.921 266.805 96.15C259.305 101.7 250.035 105 240 105C230.651 105.002 221.534 102.092 213.915 96.675L198.105 112.5L255.15 169.545C264.525 155.325 270 138.3 270 120ZM195 60C195 49.95 198.285 40.68 203.85 33.195C196.079 31.0672 188.057 29.9926 180 30C162.384 29.969 145.15 35.1346 130.455 44.85L187.5 101.895L203.31 86.07C197.901 78.4532 194.997 69.3419 195 60ZM175.605 135C193.276 154.702 204.745 179.178 208.575 205.365C222.781 200.602 235.572 192.368 245.79 181.41L187.5 123.105L175.605 135ZM176.895 112.5L165 124.38C145.302 106.711 120.832 95.2433 94.65 91.41C99.4151 77.2098 107.649 64.4235 118.605 54.21L176.895 112.5ZM52.5 105C46.5326 105 40.8097 107.371 36.5901 111.59C32.3705 115.81 30 121.533 30 127.5V150C30 181.826 42.6428 212.348 65.1472 234.853C87.6516 257.357 118.174 270 150 270H172.5C178.467 270 184.19 267.629 188.41 263.41C192.629 259.19 195 253.467 195 247.5V225C195 193.174 182.357 162.652 159.853 140.147C137.348 117.643 106.826 105 75 105H52.5ZM92.19 167.19C92.8867 166.492 93.7143 165.937 94.6255 165.559C95.5367 165.181 96.5135 164.987 97.5 164.987C98.4865 164.987 99.4633 165.181 100.375 165.559C101.286 165.937 102.113 166.492 102.81 167.19L132.81 197.19C134.218 198.598 135.009 200.508 135.009 202.5C135.009 204.492 134.218 206.402 132.81 207.81C131.402 209.218 129.492 210.009 127.5 210.009C125.508 210.009 123.598 209.218 122.19 207.81L92.19 177.81C91.4916 177.113 90.9374 176.286 90.5593 175.375C90.1812 174.463 89.9866 173.487 89.9866 172.5C89.9866 171.514 90.1812 170.537 90.5593 169.626C90.9374 168.714 91.4916 167.887 92.19 167.19Z" fill="#ACACAC"/>
</svg>
