<svg width="300" height="300" viewBox="0 0 300 300" fill="none" xmlns="http://www.w3.org/2000/svg">
<path d="M243.75 9.375H56.25C30.3609 9.375 9.375 30.3609 9.375 56.25V243.75C9.375 269.639 30.3609 290.625 56.25 290.625H243.75C269.639 290.625 290.625 269.639 290.625 243.75V56.25C290.625 30.3609 269.639 9.375 243.75 9.375ZM84.375 121.875H60.5156V142.969H84.375V157.031H60.5156V192.188H46.875V107.812H84.375V121.875ZM142.852 192.188H128.691L117.108 157.031H111.834V192.188H98.4375V107.812H121.875C134.803 107.812 145.312 118.852 145.312 132.422C145.312 142.72 139.252 151.566 130.683 155.227L142.852 192.188ZM196.875 121.875H173.016V142.969H196.875V157.031H173.016V178.125H196.875V192.188H159.375V107.812H196.875V121.875ZM253.125 121.875H229.266V142.969H253.125V157.031H229.266V178.125H253.125V192.188H215.625V107.812H253.125V121.875Z" fill="#ACACAC"/>
<path d="M121.875 121.875H111.83V142.969H121.875C127.416 142.969 131.92 138.234 131.92 132.422C131.92 126.609 127.416 121.875 121.875 121.875Z" fill="#ACACAC"/>
</svg>
