<svg width="300" height="300" viewBox="0 0 300 300" fill="none" xmlns="http://www.w3.org/2000/svg">
<path d="M125 100V175L183.75 211.25L193.75 196.25L143.75 166.25V100H125Z" fill="#ACACAC"/>
<path d="M224 150C225.884 162.424 225.053 175.109 221.565 187.182C218.076 199.254 212.012 210.427 203.791 219.931C195.57 229.435 185.387 237.044 173.943 242.235C162.499 247.426 150.066 250.075 137.5 250C88.75 250 50 211.25 50 162.5C50 113.75 88.75 75 137.5 75C146.25 75 154.625 76.25 162.5 78.625V52.875C154.5 51 146.125 50 137.5 50C75 50 25 100 25 162.5C25 225 75 275 137.5 275C153.346 275.066 169.026 271.769 183.504 265.329C197.982 258.888 210.929 249.449 221.491 237.635C232.052 225.822 239.987 211.902 244.772 196.796C249.557 181.689 251.084 165.74 249.25 150H224Z" fill="#ACACAC"/>
<path d="M250 62.5V25H225V62.5H187.5V87.5H225V125H250V87.5H287.5V62.5H250Z" fill="#ACACAC"/>
</svg>
