<svg width="115" height="115" viewBox="0 0 115 115" fill="none" xmlns="http://www.w3.org/2000/svg">
<path d="M100.625 78.6792V95.6225C100.626 96.8356 100.166 98.0038 99.3389 98.8914C98.5118 99.7789 97.3789 100.32 96.1688 100.405C94.0764 100.552 92.3674 100.625 91.0417 100.625C48.6977 100.625 14.375 66.3023 14.375 23.9583C14.375 22.6358 14.4485 20.9268 14.5954 18.8313C14.6803 17.6211 15.2211 16.4882 16.1086 15.6611C16.9962 14.8341 18.1644 14.3745 19.3775 14.375H36.3208C36.9152 14.3744 37.4885 14.5947 37.9295 14.9932C38.3705 15.3917 38.6477 15.9399 38.7071 16.5313C38.8157 17.6301 38.9179 18.5118 39.0138 19.1763C39.9659 25.8219 41.9174 32.2855 44.8021 38.3477C45.2573 39.306 44.9602 40.4512 44.0977 41.0646L33.7573 48.4533C40.0809 63.1842 51.8206 74.9239 66.5515 81.2475L73.9306 70.9262C74.231 70.5031 74.6711 70.1994 75.1733 70.0688C75.6756 69.9382 76.2078 69.989 76.6763 70.2123C82.7378 73.0915 89.1996 75.0381 95.8429 75.9862C96.5074 76.0821 97.3858 76.1843 98.4783 76.2929C99.0689 76.3535 99.6159 76.6311 100.013 77.0719C100.411 77.5128 100.626 78.0856 100.625 78.6792Z" fill="black"/>
</svg>
